<svg xmlns="http://www.w3.org/2000/svg" viewBox="0 0 200 160" fill="none">
  <rect width="200" height="160" fill="#f8f9fa"/>
  <!-- Body - Raymond green -->
  <rect x="50" y="60" width="80" height="50" rx="5" fill="#38b000"/>
  <rect x="55" y="65" width="70" height="20" rx="3" fill="#212529"/>
  <!-- Mast -->
  <rect x="130" y="15" width="10" height="95" fill="#70e000"/>
  <rect x="125" y="20" width="20" height="10" fill="#212529"/>
  <rect x="125" y="40" width="20" height="10" fill="#212529"/>
  <rect x="125" y="60" width="20" height="10" fill="#212529"/>
  <!-- Forks -->
  <rect x="140" y="95" width="45" height="7" rx="1" fill="#212529"/>
  <rect x="140" y="106" width="45" height="7" rx="1" fill="#212529"/>
  <!-- Wheels -->
  <circle cx="70" cy="115" r="13" fill="#212529"/>
  <circle cx="70" cy="115" r="6" fill="#9ef01a"/>
  <circle cx="115" cy="115" r="13" fill="#212529"/>
  <circle cx="115" cy="115" r="6" fill="#9ef01a"/>
  <!-- Cab -->
  <rect x="52" y="35" width="40" height="30" rx="3" fill="#ccff33" opacity="0.3"/>
  <rect x="52" y="35" width="40" height="30" rx="3" stroke="#70e000" stroke-width="2" fill="none"/>
  <!-- Raymond branding -->
  <text x="90" y="78" text-anchor="middle" font-size="7" fill="white" font-family="Arial" font-weight="bold">RAYMOND</text>
  <!-- Label -->
  <text x="100" y="148" text-anchor="middle" font-size="9" fill="#6c757d" font-family="Arial">Raymond</text>
</svg>
